<svg width="138" height="143" viewBox="0 0 138 143" fill="none" xmlns="http://www.w3.org/2000/svg">
<rect x="2" y="2" width="133.23" height="139.01" rx="66.615" fill="white"/>
<rect x="2" y="2" width="133.23" height="139.01" rx="66.615" stroke="black" stroke-width="4"/>
<path d="M64.9688 71.0938C67.7188 71.0938 69.8854 71.8229 71.4688 73.2812C73.0521 74.7396 73.8438 76.5312 73.8438 78.6562C73.8438 81.5521 72.4062 84.2708 69.5312 86.8125C66.6771 89.3542 63.2812 90.625 59.3438 90.625C56.1979 90.625 53.7292 89.9271 51.9375 88.5312C50.1667 87.1146 49.2812 85.6562 49.2812 84.1562C49.2812 83.3021 49.5625 82.5521 50.125 81.9062C50.7083 81.2604 51.4583 80.9375 52.375 80.9375C53.0208 80.9375 53.5521 81.1667 53.9688 81.625C54.3854 82.0625 54.5938 82.5521 54.5938 83.0938C54.5938 83.3854 54.4583 83.7812 54.1875 84.2812C53.9167 84.8021 53.7812 85.3021 53.7812 85.7812C53.7812 86.8646 54.3021 87.75 55.3438 88.4375C56.3854 89.1042 57.6458 89.4375 59.125 89.4375C61.1042 89.4375 62.7708 88.8542 64.125 87.6875C65.5 86.5208 66.6354 84.75 67.5312 82.375C68.4479 80 68.9062 78.2188 68.9062 77.0312C68.9062 75.4896 68.4792 74.2812 67.625 73.4062C66.7708 72.5104 65.75 72.0625 64.5625 72.0625C63.7083 72.0625 62.4583 72.7083 60.8125 74C59.5208 75 58.7917 75.5 58.625 75.5C58.25 75.5 58.0625 75.3021 58.0625 74.9062C58.0625 74.7396 59.0312 73.9167 60.9688 72.4375C64.4896 69.75 66.5833 67.7292 67.25 66.375C67.9375 65.0208 68.2812 63.75 68.2812 62.5625C68.2812 61.0417 67.8229 59.7917 66.9062 58.8125C65.9896 57.8333 64.8125 57.3438 63.375 57.3438C61.3958 57.3438 59.625 58.1458 58.0625 59.75C56.5 61.3542 55.7188 63.1667 55.7188 65.1875C55.7188 66.25 55.9271 67.0521 56.3438 67.5938C56.7604 68.1146 57.3854 68.375 58.2188 68.375C59.4688 68.375 60.6042 67.4167 61.625 65.5C61.7708 65.25 61.9479 65.125 62.1562 65.125C62.5521 65.125 62.75 65.3125 62.75 65.6875C62.75 66.1458 62.1562 67.0625 60.9688 68.4375C59.7812 69.7917 58.3958 70.4688 56.8125 70.4688C55.3958 70.4688 54.3021 70.0312 53.5312 69.1562C52.7604 68.2812 52.375 67.2396 52.375 66.0312C52.375 63.5521 53.5729 61.2708 55.9688 59.1875C58.3854 57.1042 61.3229 56.0625 64.7812 56.0625C67.4479 56.0625 69.4583 56.6667 70.8125 57.875C72.1667 59.0833 72.8438 60.5312 72.8438 62.2188C72.8438 63.4688 72.5 64.5729 71.8125 65.5312C71.1458 66.4896 70.375 67.2812 69.5 67.9062L64.9688 71.0938ZM85 84.25C85.8333 84.25 86.5521 84.5417 87.1562 85.125C87.7812 85.7083 88.0938 86.4375 88.0938 87.3125C88.0938 88.1667 87.7917 88.8958 87.1875 89.5C86.5833 90.1042 85.8542 90.4062 85 90.4062C84.1667 90.4062 83.4479 90.1042 82.8438 89.5C82.2396 88.8958 81.9375 88.1667 81.9375 87.3125C81.9375 86.4792 82.2396 85.7604 82.8438 85.1562C83.4479 84.5521 84.1667 84.25 85 84.25Z" fill="black"/>
</svg>
