<svg width="138" height="143" viewBox="0 0 138 143" fill="none" xmlns="http://www.w3.org/2000/svg">
<rect x="2" y="2" width="133.23" height="139.01" rx="66.615" fill="white"/>
<rect x="2" y="2" width="133.23" height="139.01" rx="66.615" stroke="black" stroke-width="4"/>
<path d="M58.5 60.9375C57.5417 65.7708 56.9688 69.0833 56.7812 70.875C57.9479 69.9167 59.1354 69.1979 60.3438 68.7188C61.5521 68.2396 62.7917 68 64.0625 68C66.5833 68 68.8333 68.8333 70.8125 70.5C72.7917 72.1667 73.7812 74.4062 73.7812 77.2188C73.7812 80.6979 72.2396 83.8021 69.1562 86.5312C66.0938 89.2396 62.7188 90.5938 59.0312 90.5938C56.4062 90.5938 54.1771 89.9583 52.3438 88.6875C50.5104 87.3958 49.5938 85.7708 49.5938 83.8125C49.5938 82.8333 49.875 82.1042 50.4375 81.625C51.0208 81.1458 51.6771 80.9062 52.4062 80.9062C52.9896 80.9062 53.5312 81.1146 54.0312 81.5312C54.5312 81.9271 54.7812 82.4167 54.7812 83C54.7812 83.3333 54.6979 83.8021 54.5312 84.4062C54.3438 85.0521 54.25 85.5521 54.25 85.9062C54.25 86.6979 54.6146 87.4792 55.3438 88.25C56.0938 89.0208 57.3125 89.4062 59 89.4062C62.0417 89.4062 64.4375 88.1458 66.1875 85.625C67.9375 83.0833 68.8125 79.9062 68.8125 76.0938C68.8125 73.8021 68.375 72.0833 67.5 70.9375C66.6458 69.7917 65.3542 69.2188 63.625 69.2188C61.5833 69.2188 59.8125 69.9479 58.3125 71.4062C56.7917 72.8646 55.9479 74.3125 55.7812 75.75C55.6771 76.625 55.4375 77.0625 55.0625 77.0625C54.7083 77.0625 54.5312 76.8542 54.5312 76.4375C54.5312 76.3125 55.0104 73.2292 55.9688 67.1875L57.0312 60.2812C57.3021 58.4271 57.5521 57.1875 57.7812 56.5625C61.4688 57.1667 63.6979 57.4688 64.4688 57.4688C67.3229 57.4688 69.6875 56.2396 71.5625 53.7812C71.9167 53.3021 72.2292 53.0625 72.5 53.0625C72.8125 53.0625 72.9688 53.1979 72.9688 53.4688C72.9688 54.9688 71.9271 56.625 69.8438 58.4375C67.7604 60.2292 65.0521 61.125 61.7188 61.125C60.9479 61.125 59.875 61.0625 58.5 60.9375ZM85 84.25C85.8333 84.25 86.5521 84.5417 87.1562 85.125C87.7812 85.7083 88.0938 86.4375 88.0938 87.3125C88.0938 88.1667 87.7917 88.8958 87.1875 89.5C86.5833 90.1042 85.8542 90.4062 85 90.4062C84.1667 90.4062 83.4479 90.1042 82.8438 89.5C82.2396 88.8958 81.9375 88.1667 81.9375 87.3125C81.9375 86.4792 82.2396 85.7604 82.8438 85.1562C83.4479 84.5521 84.1667 84.25 85 84.25Z" fill="black"/>
</svg>
