<svg width="138" height="143" viewBox="0 0 138 143" fill="none" xmlns="http://www.w3.org/2000/svg">
<rect x="2" y="2" width="133.23" height="139.01" rx="66.615" fill="white"/>
<rect x="2" y="2" width="133.23" height="139.01" rx="66.615" stroke="black" stroke-width="4"/>
<path d="M71.0312 89.9375C69.9271 90.0208 68.8958 90.0625 67.9375 90.0625L54.25 89.9062C52.1042 89.9062 50.6875 89.9375 50 90C49.3333 90 49 89.8021 49 89.4062C49 89.2188 49.1667 89 49.5 88.75C57 83.25 62.0625 78.6042 64.6875 74.8125C67.3125 71.0208 68.625 67.5417 68.625 64.375C68.625 62.5625 68.1771 60.9896 67.2812 59.6562C66.4062 58.3229 65.0417 57.6562 63.1875 57.6562C60.1667 57.6562 57.6667 58.9792 55.6875 61.625C53.7292 64.2708 52.75 67 52.75 69.8125C52.75 71.1042 53 72.0729 53.5 72.7188C54 73.3646 54.75 73.6875 55.75 73.6875C56.5208 73.6875 57.4167 73.3646 58.4375 72.7188C59.4583 72.0729 60.3229 70.7708 61.0312 68.8125C61.2188 68.2917 61.4479 68.0312 61.7188 68.0312C62.1354 68.0312 62.3438 68.2396 62.3438 68.6562C62.3438 69.0312 62.0417 69.8021 61.4375 70.9688C60.8542 72.1354 59.9271 73.1771 58.6562 74.0938C57.4062 74.9896 56.1771 75.4375 54.9688 75.4375C53.4896 75.4375 52.1875 74.8646 51.0625 73.7188C49.9375 72.5521 49.375 71.1979 49.375 69.6562C49.375 66.7604 51.0417 63.7812 54.375 60.7188C57.7292 57.6354 61.2083 56.0938 64.8125 56.0938C67.2292 56.0938 69.3229 56.8021 71.0938 58.2188C72.8646 59.6354 73.75 61.6979 73.75 64.4062C73.75 67.0104 72.8958 69.4792 71.1875 71.8125C69.4792 74.125 66.0208 77.2812 60.8125 81.2812C58.0417 83.4271 56.1771 84.9167 55.2188 85.75H64.6562C67.4062 85.75 69.2083 85.5833 70.0625 85.25C70.9375 84.9167 71.8854 84.0417 72.9062 82.625C73.4479 81.875 73.8333 81.5 74.0625 81.5C74.3958 81.5 74.5625 81.6667 74.5625 82L71.0312 89.9375ZM85 84.25C85.8333 84.25 86.5521 84.5417 87.1562 85.125C87.7812 85.7083 88.0938 86.4375 88.0938 87.3125C88.0938 88.1667 87.7917 88.8958 87.1875 89.5C86.5833 90.1042 85.8542 90.4062 85 90.4062C84.1667 90.4062 83.4479 90.1042 82.8438 89.5C82.2396 88.8958 81.9375 88.1667 81.9375 87.3125C81.9375 86.4792 82.2396 85.7604 82.8438 85.1562C83.4479 84.5521 84.1667 84.25 85 84.25Z" fill="black"/>
</svg>
