<svg width="138" height="143" viewBox="0 0 138 143" fill="none" xmlns="http://www.w3.org/2000/svg">
<rect x="2" y="2" width="133.23" height="139.01" rx="66.615" fill="white"/>
<rect x="2" y="2" width="133.23" height="139.01" rx="66.615" stroke="black" stroke-width="4"/>
<path d="M65.7188 60.875C65.5938 68.3542 65.5312 73.1146 65.5312 75.1562C65.5312 82.0521 65.6771 86.0104 65.9688 87.0312C66.2604 88.0312 67.3333 88.6146 69.1875 88.7812C70.0208 88.8646 70.4375 89.0417 70.4375 89.3125C70.4375 89.8125 70.1146 90.0625 69.4688 90.0625C69.3021 90.0625 69.1146 90.0521 68.9062 90.0312C68.1979 89.9688 67.0312 89.9375 65.4062 89.9375C62.0312 89.9375 59.4167 89.9792 57.5625 90.0625C57.1667 90.0833 56.8542 90.0938 56.625 90.0938C55.9583 90.0938 55.625 89.9062 55.625 89.5312C55.625 89.1354 55.9792 88.9167 56.6875 88.875C58.8542 88.7292 60.1771 88.2292 60.6562 87.375C61.1354 86.5 61.375 84.5521 61.375 81.5312C61.375 73.2396 61.3333 67.9271 61.25 65.5938C61.1667 63.2604 60.8021 61.7083 60.1562 60.9375C59.5104 60.1667 58.4896 59.7812 57.0938 59.7812C56.1979 59.7812 55.6354 59.7292 55.4062 59.625C55.1771 59.5 55.0625 59.3021 55.0625 59.0312C55.0625 58.7188 55.4375 58.5521 56.1875 58.5312C57.625 58.5104 59.1667 58.2812 60.8125 57.8438C62.4583 57.4062 63.7396 56.8646 64.6562 56.2188C64.8854 56.0521 65.0729 55.9688 65.2188 55.9688C65.5521 55.9688 65.7188 56.2604 65.7188 56.8438V60.875ZM85 84.25C85.8333 84.25 86.5521 84.5417 87.1562 85.125C87.7812 85.7083 88.0938 86.4375 88.0938 87.3125C88.0938 88.1667 87.7917 88.8958 87.1875 89.5C86.5833 90.1042 85.8542 90.4062 85 90.4062C84.1667 90.4062 83.4479 90.1042 82.8438 89.5C82.2396 88.8958 81.9375 88.1667 81.9375 87.3125C81.9375 86.4792 82.2396 85.7604 82.8438 85.1562C83.4479 84.5521 84.1667 84.25 85 84.25Z" fill="black"/>
</svg>
