<svg width="138" height="143" viewBox="0 0 138 143" fill="none" xmlns="http://www.w3.org/2000/svg">
<rect x="2" y="2" width="133.23" height="139.01" rx="66.615" fill="white"/>
<rect x="2" y="2" width="133.23" height="139.01" rx="66.615" stroke="black" stroke-width="4"/>
<path d="M63.0625 77.125C58.2917 77.125 53.1667 77.2083 47.6875 77.375C47.6667 77.125 47.6562 76.9479 47.6562 76.8438C47.6562 76.6979 47.6667 76.4896 47.6875 76.2188C53.4375 69.1146 59.4688 62.3542 65.7812 55.9375C66.2812 55.875 66.6042 55.8438 66.75 55.8438C67.0833 55.8438 67.3021 55.9688 67.4062 56.2188C67.4688 57.8646 67.5 59.2708 67.5 60.4375L67.3438 71.8438C67.3438 72.7604 67.3646 74.0833 67.4062 75.8125C70.4479 75.8125 72.4375 75.3854 73.375 74.5312C74.3125 73.6771 74.8125 72.25 74.875 70.25C74.8958 69.75 75.0938 69.5 75.4688 69.5C75.8646 69.5 76.0625 69.7708 76.0625 70.3125C76.0625 70.5 76.0521 70.7292 76.0312 71C75.9271 72 75.875 73.4062 75.875 75.2188L76 82C76 82.4375 75.7917 82.6562 75.375 82.6562C75.0833 82.6562 74.8958 82.4583 74.8125 82.0625C74.375 80.1042 73.8438 78.7812 73.2188 78.0938C72.5938 77.4062 71.4062 77.0625 69.6562 77.0625C69.3438 77.0625 68.5938 77.0833 67.4062 77.125C67.4062 82.7292 67.4375 85.8542 67.5 86.5C67.5833 87.125 67.9062 87.6667 68.4688 88.125C69.0312 88.5833 70.0312 88.8125 71.4688 88.8125C72.1354 88.8125 72.4688 88.9896 72.4688 89.3438C72.4688 89.7812 71.8958 90 70.75 90H58.9375C57.7708 90 57.1875 89.7812 57.1875 89.3438C57.1875 88.9896 57.6875 88.8021 58.6875 88.7812C60.5208 88.7396 61.6667 88.2708 62.125 87.375C62.6042 86.4792 62.9167 83.0625 63.0625 77.125ZM63.0625 75.8125C63.3125 72.1667 63.4062 67.0625 63.3438 60.5C60.4062 63.7917 58.0104 66.3958 56.1562 68.3125C54.3229 70.2083 52.2083 72.75 49.8125 75.9375C53.1458 75.8125 56.75 75.75 60.625 75.75C60.9375 75.75 61.75 75.7708 63.0625 75.8125ZM85 84.25C85.8333 84.25 86.5521 84.5417 87.1562 85.125C87.7812 85.7083 88.0938 86.4375 88.0938 87.3125C88.0938 88.1667 87.7917 88.8958 87.1875 89.5C86.5833 90.1042 85.8542 90.4062 85 90.4062C84.1667 90.4062 83.4479 90.1042 82.8438 89.5C82.2396 88.8958 81.9375 88.1667 81.9375 87.3125C81.9375 86.4792 82.2396 85.7604 82.8438 85.1562C83.4479 84.5521 84.1667 84.25 85 84.25Z" fill="black"/>
</svg>
